<?xml version="1.0" encoding="UTF-8"?>
<svg width="74px" height="74px" viewBox="0 0 74 74" version="1.1" xmlns="http://www.w3.org/2000/svg" xmlns:xlink="http://www.w3.org/1999/xlink">
    <!-- Generator: Sketch 40.3 (33839) - http://www.bohemiancoding.com/sketch -->
    <title>icon-white</title>
    <desc>Created with Sketch.</desc>
    <defs></defs>
    <g id="Page-1" stroke="none" stroke-width="1" fill="none" fill-rule="evenodd">
        <g id="icon-white">
            <polygon id="Rectangle-74-Copy-2" fill="#DADADA" transform="translate(14.003913, 41.761548) rotate(-20.000000) translate(-14.003913, -41.761548) " points="6.03364673 46.9945993 1.88910846 36.5284976 26.1187168 36.5284976 26.1187168 46.9945993"></polygon>
            <polygon id="Rectangle-74-Copy-3" fill="#EEEEEE" transform="translate(17.510830, 51.422565) scale(1, -1) rotate(20.000000) translate(-17.510830, -51.422565) " points="9.54056373 56.6556163 5.39602546 46.1895146 29.6256338 46.1895146 29.6256338 56.6556163"></polygon>
            <path d="M76.620831,36.5734048 C76.4544867,46.6298266 62.3879739,54.7522184 45.0600688,54.7522184 C27.7321636,54.7522184 13.6656508,46.6298266 13.4993065,36.5734048 L76.620831,36.5734048 L76.620831,36.5734048 Z" id="Path-Copy" fill="#CDCDCD" transform="translate(45.060069, 45.662812) rotate(-20.000000) translate(-45.060069, -45.662812) "></path>
            <path d="M70.2510264,37.7158244 C70.1147504,27.6445983 56.0365023,19.5048074 38.6897712,19.5048074 C21.3430402,19.5048074 7.26479207,27.6445983 7.12851605,37.7158244 L70.2510264,37.7158244 L70.2510264,37.7158244 Z" id="Path-Copy-2" fill="#FFFFFF" transform="translate(38.689771, 28.610316) rotate(-20.000000) translate(-38.689771, -28.610316) "></path>
            <path d="M75.5812194,36.7572393 C75.330375,43.4344875 61.2970749,48.8174088 44.0223827,48.8174088 C26.7476904,48.8174088 12.7143903,43.4344875 12.4635459,36.7572393 L75.5812194,36.7572393 L75.5812194,36.7572393 Z" id="Path-Copy-3" fill="#DADADA" transform="translate(44.022383, 42.787324) rotate(-20.000000) translate(-44.022383, -42.787324) "></path>
            <path d="M71.4443246,37.577845 C71.238685,30.8857901 57.1875742,25.4854721 39.884358,25.4854721 C22.5811419,25.4854721 8.53003105,30.8857901 8.32439145,37.577845 L71.4443246,37.577845 L71.4443246,37.577845 Z" id="Path-Copy-4" fill="#EEEEEE" transform="translate(39.884358, 31.531659) rotate(-20.000000) translate(-39.884358, -31.531659) "></path>
            <path d="M44.3427244,17.8283384 C42.7933771,12.4171957 41.0300866,9.41536115 39.0268415,9.4730663 C35.151618,9.58469536 33.8487578,21.9949532 35.1028302,37.8976689 C36.370174,53.9686781 39.6576279,66.0415566 43.7563729,65.9326979 C46.2007054,65.8677788 47.5770755,61.9182067 48.0598815,55.0607095 C48.0697477,54.9205762 47.9153254,55.0177007 47.9244468,54.8751472 C47.9244468,54.8751472 47.9045171,54.6246727 47.8125946,54.6186715 C47.6393947,54.607364 47.292995,54.5847489 47.292995,54.5847489 C46.8669969,61.2424774 45.5771549,65.0789767 43.7354238,65.1278913 C40.3670122,65.217353 37.1149907,53.2745971 35.8973401,37.8337413 C34.6997583,22.6473742 35.9890897,10.3659833 39.0495615,10.2778239 C40.4980959,10.2360976 42.120804,13.000096 43.5573683,17.9837559 C43.5573683,17.9837559 44.3435143,17.8310972 44.3427244,17.8283384 Z" id="Shape-Copy" fill="#CDCDCD"></path>
            <path d="M25.1408502,13.9670608 C21.840064,16.020936 26.8547753,27.4265508 35.8126059,40.5653309 C44.8652345,53.8431546 53.6882732,62.6382285 57.1840059,60.473862 C59.1377195,59.2642294 58.5892766,55.5922887 56.0736896,50.0487862 C55.9819795,49.8466882 55.7454408,49.7579527 55.5453655,49.85059 C55.3452903,49.9432274 55.257443,50.1821576 55.3491531,50.3842557 C57.6878829,55.5380249 58.1909452,58.9061325 56.7674878,59.7874595 C53.8946409,61.5661692 45.1666977,52.8658893 36.4690279,40.1086967 C27.9147088,27.5617617 22.9520698,16.2745818 25.5588776,14.6525265 C26.9433247,13.7910707 30.2355917,15.8693762 34.5860173,20.3590988 C34.6344186,20.4090499 34.9131065,20.7003391 34.9749429,20.7193568 C35.1097901,20.760829 35.0417291,20.4718223 35.1495678,20.3652059 C35.3068575,20.2096988 35.3095644,19.9548378 35.1556138,19.7959578 C30.5080619,14.9995952 27.0200731,12.7977366 25.1408502,13.9670608 Z" id="Shape-Copy-2" fill="#CDCDCD"></path>
        </g>
    </g>
</svg>