<?xml version="1.0" encoding="UTF-8"?>
<svg width="74px" height="74px" viewBox="0 0 74 74" version="1.1" xmlns="http://www.w3.org/2000/svg" xmlns:xlink="http://www.w3.org/1999/xlink">
    <!-- Generator: Sketch 40.3 (33839) - http://www.bohemiancoding.com/sketch -->
    <title>icon-gray</title>
    <desc>Created with Sketch.</desc>
    <defs></defs>
    <g id="Page-1" stroke="none" stroke-width="1" fill="none" fill-rule="evenodd">
        <g id="icon-gray">
            <g id="Group" transform="translate(0.000000, 8.000000)">
                <polygon id="Rectangle-74" fill="#F89920" transform="translate(13.506544, 33.315573) rotate(-20.000000) translate(-13.506544, -33.315573) " points="5.44869281 38.4843788 1.25861017 28.1467672 25.7544779 28.1467672 25.7544779 38.4843788"></polygon>
                <polygon id="Rectangle-74-Copy" fill="#FFBE22" transform="translate(17.034157, 42.880301) scale(1, -1) rotate(20.000000) translate(-17.034157, -42.880301) " points="8.97630553 48.0491072 4.78622289 37.7114956 29.2820907 37.7114956 29.2820907 48.0491072"></polygon>
                <path d="M76.6726939,28.1814575 C76.5045217,38.1144188 62.2834318,46.1370936 44.7651101,46.1370936 C27.2467884,46.1370936 13.0256985,38.1144188 12.8575263,28.1814575 L76.6726939,28.1814575 L76.6726939,28.1814575 Z" id="Path" fill="#F0670A" transform="translate(44.765110, 37.159276) rotate(-20.000000) translate(-44.765110, -37.159276) "></path>
                <path d="M70.4447511,29.265274 C70.3069775,19.3176901 56.0740233,11.2778298 38.5366689,11.2778298 C20.9993144,11.2778298 6.76636029,19.3176901 6.62858673,29.265274 L70.4447511,29.265274 L70.4447511,29.265274 Z" id="Path" fill="#FFD00E" transform="translate(38.536669, 20.271552) rotate(-20.000000) translate(-38.536669, -20.271552) "></path>
                <path d="M75.6234873,28.3636921 C75.3698863,34.9589651 61.1823741,40.2758015 43.7178501,40.2758015 C26.253326,40.2758015 12.0658138,34.9589651 11.8122129,28.3636921 L75.6234873,28.3636921 L75.6234873,28.3636921 Z" id="Path" fill="#F89920" transform="translate(43.717850, 34.319747) rotate(-20.000000) translate(-43.717850, -34.319747) "></path>
                <path d="M71.4907083,29.0830393 C71.2828089,22.4731413 57.0772903,17.1391219 39.5839289,17.1391219 C22.0905676,17.1391219 7.88504889,22.4731413 7.6771495,29.0830393 L71.4907083,29.0830393 L71.4907083,29.0830393 Z" id="Path" fill="#FFBE22" transform="translate(39.583929, 23.111081) rotate(-20.000000) translate(-39.583929, -23.111081) "></path>
                <path d="M43.9728642,9.43040037 C42.4064911,4.08568902 40.6238238,1.1207074 38.5985651,1.17770411 C34.6807566,1.28796272 33.3635793,13.5458625 34.6314327,29.253344 C35.9127034,45.1270528 39.2362832,57.0517151 43.3800693,56.9441929 C45.8512626,56.8800709 47.2427576,52.9789868 47.7308692,46.2056775 C47.7408438,46.0672647 47.5847246,46.1631968 47.5939462,46.0223934 C47.5939462,46.0223934 47.5737975,45.7749939 47.4808649,45.7690663 C47.3057617,45.7578977 46.9555554,45.7355603 46.9555554,45.7355603 C46.524876,52.3115533 45.2208599,56.1009527 43.35889,56.1492668 C39.9534628,56.2376302 36.6657048,44.4414929 35.4346735,29.1902012 C34.2239314,14.1902738 35.5274313,2.05965899 38.6215347,1.97258185 C40.085987,1.93136787 41.7265271,4.66143317 43.1788779,9.58390977 C43.1788779,9.58390977 43.9736628,9.43312522 43.9728642,9.43040037 Z" id="Shape" fill="#F0670A"></path>
                <path d="M24.5599804,5.61652685 C21.2229219,7.64518701 26.2927399,18.9107775 35.3490082,31.8882556 C44.5011162,45.0030703 53.4211114,53.690169 56.9552587,51.552374 C58.9304417,50.3575917 58.375972,46.7307307 55.8327412,41.2552846 C55.7400233,41.0556677 55.5008852,40.9680216 55.2986113,41.0595216 C55.0963374,41.1510217 55.0075248,41.3870186 55.1002427,41.5866356 C57.4646729,46.6771331 57.9732633,50.0038912 56.5341635,50.8743983 C53.6297469,52.6312711 44.8058922,44.0378027 36.0126436,31.4372274 C27.3643209,19.0443285 22.3471475,7.89571891 24.9826016,6.29357719 C26.3822623,5.44269728 29.7107081,7.49548786 34.1089405,11.9300911 C34.1578737,11.9794289 34.4396242,12.2671421 34.50214,12.2859264 C34.6384691,12.3268894 34.5696602,12.0414308 34.6786839,11.9361233 C34.8377021,11.7825253 34.8404387,11.5307931 34.6847963,11.3738637 C29.9861725,6.63638504 26.4598541,4.46155817 24.5599804,5.61652685 Z" id="Shape" fill="#F0670A"></path>
            </g>
        </g>
    </g>
</svg>