<?xml version="1.0" encoding="UTF-8"?>
<svg width="74px" height="74px" viewBox="0 0 74 74" version="1.1" xmlns="http://www.w3.org/2000/svg" xmlns:xlink="http://www.w3.org/1999/xlink">
    <!-- Generator: Sketch 40.3 (33839) - http://www.bohemiancoding.com/sketch -->
    <title>icon-gray</title>
    <desc>Created with Sketch.</desc>
    <defs></defs>
    <g id="Page-1" stroke="none" stroke-width="1" fill="none" fill-rule="evenodd">
        <g id="icon-gray">
            <g id="Group-2" transform="translate(0.000000, 9.000000)">
                <g id="Group">
                    <polygon id="Rectangle-74-Copy-2" fill="#A4A4A4" transform="translate(14.003913, 32.761548) rotate(-20.000000) translate(-14.003913, -32.761548) " points="6.03364673 37.9945993 1.88910846 27.5284976 26.1187168 27.5284976 26.1187168 37.9945993"></polygon>
                    <polygon id="Rectangle-74-Copy-3" fill="#C1C1C1" transform="translate(17.510830, 42.422565) scale(1, -1) rotate(20.000000) translate(-17.510830, -42.422565) " points="9.54056373 47.6556163 5.39602546 37.1895146 29.6256338 37.1895146 29.6256338 47.6556163"></polygon>
                    <path d="M76.620831,27.5734048 C76.4544867,37.6298266 62.3879739,45.7522184 45.0600688,45.7522184 C27.7321636,45.7522184 13.6656508,37.6298266 13.4993065,27.5734048 L76.620831,27.5734048 L76.620831,27.5734048 Z" id="Path-Copy" fill="#7D7D7D" transform="translate(45.060069, 36.662812) rotate(-20.000000) translate(-45.060069, -36.662812) "></path>
                    <path d="M70.2510264,28.7158244 C70.1147504,18.6445983 56.0365023,10.5048074 38.6897712,10.5048074 C21.3430402,10.5048074 7.26479207,18.6445983 7.12851605,28.7158244 L70.2510264,28.7158244 L70.2510264,28.7158244 Z" id="Path-Copy-2" fill="#CCCCCC" transform="translate(38.689771, 19.610316) rotate(-20.000000) translate(-38.689771, -19.610316) "></path>
                    <path d="M75.5812194,27.7572393 C75.330375,34.4344875 61.2970749,39.8174088 44.0223827,39.8174088 C26.7476904,39.8174088 12.7143903,34.4344875 12.4635459,27.7572393 L75.5812194,27.7572393 L75.5812194,27.7572393 Z" id="Path-Copy-3" fill="#A4A4A4" transform="translate(44.022383, 33.787324) rotate(-20.000000) translate(-44.022383, -33.787324) "></path>
                    <path d="M71.4443246,28.577845 C71.238685,21.8857901 57.1875742,16.4854721 39.884358,16.4854721 C22.5811419,16.4854721 8.53003105,21.8857901 8.32439145,28.577845 L71.4443246,28.577845 L71.4443246,28.577845 Z" id="Path-Copy-4" fill="#C1C1C1" transform="translate(39.884358, 22.531659) rotate(-20.000000) translate(-39.884358, -22.531659) "></path>
                    <path d="M44.3427244,8.82833845 C42.7933771,3.41719566 41.0300866,0.415361154 39.0268415,0.473066304 C35.151618,0.584695358 33.8487578,12.9949532 35.1028302,28.8976689 C36.370174,44.9686781 39.6576279,57.0415566 43.7563729,56.9326979 C46.2007054,56.8677788 47.5770755,52.9182067 48.0598815,46.0607095 C48.0697477,45.9205762 47.9153254,46.0177007 47.9244468,45.8751472 C47.9244468,45.8751472 47.9045171,45.6246727 47.8125946,45.6186715 C47.6393947,45.607364 47.292995,45.5847489 47.292995,45.5847489 C46.8669969,52.2424774 45.5771549,56.0789767 43.7354238,56.1278913 C40.3670122,56.217353 37.1149907,44.2745971 35.8973401,28.8337413 C34.6997583,13.6473742 35.9890897,1.36598333 39.0495615,1.27782388 C40.4980959,1.23609764 42.120804,4.00009595 43.5573683,8.98375587 C43.5573683,8.98375587 44.3435143,8.83109717 44.3427244,8.82833845 Z" id="Shape-Copy" fill="#7D7D7D"></path>
                    <path d="M25.1408502,4.96706085 C21.840064,7.02093599 26.8547753,18.4265508 35.8126059,31.5653309 C44.8652345,44.8431546 53.6882732,53.6382285 57.1840059,51.473862 C59.1377195,50.2642294 58.5892766,46.5922887 56.0736896,41.0487862 C55.9819795,40.8466882 55.7454408,40.7579527 55.5453655,40.85059 C55.3452903,40.9432274 55.257443,41.1821576 55.3491531,41.3842557 C57.6878829,46.5380249 58.1909452,49.9061325 56.7674878,50.7874595 C53.8946409,52.5661692 45.1666977,43.8658893 36.4690279,31.1086967 C27.9147088,18.5617617 22.9520698,7.27458185 25.5588776,5.65252651 C26.9433247,4.79107069 30.2355917,6.86937618 34.5860173,11.3590988 C34.6344186,11.4090499 34.9131065,11.7003391 34.9749429,11.7193568 C35.1097901,11.760829 35.0417291,11.4718223 35.1495678,11.3652059 C35.3068575,11.2096988 35.3095644,10.9548378 35.1556138,10.7959578 C30.5080619,5.99959524 27.0200731,3.79773662 25.1408502,4.96706085 Z" id="Shape-Copy-2" fill="#7D7D7D"></path>
                </g>
            </g>
        </g>
    </g>
</svg>